<svg width="71" height="71" viewBox="0 0 71 71" fill="none" xmlns="http://www.w3.org/2000/svg">
<path fill-rule="evenodd" clip-rule="evenodd" d="M48.409 25.8182C48.409 29.2419 47.0489 32.5254 44.628 34.9463C42.2071 37.3672 38.9236 38.7273 35.4999 38.7273C32.0762 38.7273 28.7927 37.3672 26.3718 34.9463C23.9509 32.5254 22.5908 29.2419 22.5908 25.8182C22.5908 22.3945 23.9509 19.111 26.3718 16.6901C28.7927 14.2691 32.0762 12.9091 35.4999 12.9091C38.9236 12.9091 42.2071 14.2691 44.628 16.6901C47.0489 19.111 48.409 22.3945 48.409 25.8182ZM41.9545 25.8182C41.9545 27.53 41.2744 29.1718 40.064 30.3822C38.8535 31.5927 37.2118 32.2727 35.4999 32.2727C33.7881 32.2727 32.1463 31.5927 30.9359 30.3822C29.7254 29.1718 29.0454 27.53 29.0454 25.8182C29.0454 24.1063 29.7254 22.4646 30.9359 21.2541C32.1463 20.0437 33.7881 19.3636 35.4999 19.3636C37.2118 19.3636 38.8535 20.0437 40.064 21.2541C41.2744 22.4646 41.9545 24.1063 41.9545 25.8182Z" fill="url(#paint0_linear_41_36)"/>
<path fill-rule="evenodd" clip-rule="evenodd" d="M35.5 0C15.8943 0 0 15.8943 0 35.5C0 55.1057 15.8943 71 35.5 71C55.1057 71 71 55.1057 71 35.5C71 15.8943 55.1057 0 35.5 0ZM6.45455 35.5C6.45455 42.245 8.75559 48.4543 12.6122 53.3855C15.3206 49.8288 18.8147 46.9463 22.8214 44.9634C26.8282 42.9804 31.2392 41.9507 35.7098 41.9545C40.1225 41.9504 44.478 42.9535 48.4444 44.8874C52.4107 46.8214 55.8833 49.6352 58.5976 53.1145C61.3939 49.447 63.2766 45.1664 64.0901 40.6268C64.9035 36.0872 64.6243 31.4192 63.2755 27.009C61.9267 22.5988 59.5471 18.5731 56.3336 15.2651C53.1201 11.9571 49.1651 9.46191 44.7958 7.98591C40.4265 6.50992 35.7685 6.09558 31.2073 6.77719C26.646 7.45879 22.3127 9.21674 18.5658 11.9056C14.8188 14.5944 11.766 18.1369 9.65997 22.2398C7.55391 26.3427 6.45513 30.8881 6.45455 35.5ZM35.5 64.5455C28.8323 64.5555 22.3659 62.2617 17.1949 58.0522C19.2763 55.0726 22.0466 52.6398 25.2702 50.9608C28.4937 49.2819 32.0752 48.4065 35.7098 48.4091C39.299 48.4062 42.8372 49.2597 46.0304 50.8987C49.2235 52.5377 51.9796 54.9148 54.0697 57.8327C48.8586 62.1789 42.2856 64.555 35.5 64.5455Z" fill="url(#paint1_linear_41_36)"/>
<defs>
<linearGradient id="paint0_linear_41_36" x1="22.7522" y1="25.6568" x2="48.0863" y2="25.4955" gradientUnits="userSpaceOnUse">
<stop stop-color="#635BFF"/>
<stop offset="1" stop-color="#A35BFF"/>
</linearGradient>
<linearGradient id="paint1_linear_41_36" x1="0.44375" y1="35.0562" x2="70.1125" y2="34.6125" gradientUnits="userSpaceOnUse">
<stop stop-color="#635BFF"/>
<stop offset="1" stop-color="#A35BFF"/>
</linearGradient>
</defs>
</svg>
