<svg width="25" height="25" viewBox="0 0 25 25" fill="none" xmlns="http://www.w3.org/2000/svg">
<path d="M22.2759 13.6822C22.5895 13.3687 22.7656 12.9434 22.7656 12.5C22.7656 12.0566 22.5895 11.6313 22.2759 11.3178C21.9624 11.0043 21.5372 10.8281 21.0938 10.8281H14.1719V3.90625C14.1719 3.46284 13.9957 3.03759 13.6822 2.72406C13.3687 2.41052 12.9434 2.23438 12.5 2.23438C12.0566 2.23438 11.6313 2.41052 11.3178 2.72406C11.0043 3.03759 10.8281 3.46284 10.8281 3.90625V10.8281H3.90625C3.46284 10.8281 3.03759 11.0043 2.72406 11.3178C2.41052 11.6313 2.23438 12.0566 2.23438 12.5C2.23438 12.9434 2.41052 13.3687 2.72406 13.6822C3.03759 13.9957 3.46284 14.1719 3.90625 14.1719H10.8281V21.0938C10.8281 21.5372 11.0043 21.9624 11.3178 22.2759C11.6313 22.5895 12.0566 22.7656 12.5 22.7656C12.9434 22.7656 13.3687 22.5895 13.6822 22.2759C13.9957 21.9624 14.1719 21.5372 14.1719 21.0938V14.1719H21.0938C21.5372 14.1719 21.9624 13.9957 22.2759 13.6822Z" fill="white" stroke="white"/>
</svg>
